<?xml version="1.0" encoding="UTF-8" standalone="no"?>
<!DOCTYPE svg PUBLIC "-//W3C//DTD SVG 1.1//EN"
 "http://www.w3.org/Graphics/SVG/1.1/DTD/svg11.dtd">
<!-- Generated by graphviz version 2.38.0 (20140413.2041)
 -->
<!-- Title: map_cc_1 Pages: 1 -->
<svg width="380pt" height="220pt"
 viewBox="0.00 0.00 379.94 219.91" xmlns="http://www.w3.org/2000/svg" xmlns:xlink="http://www.w3.org/1999/xlink">
<g id="graph0" class="graph" transform="scale(1 1) rotate(0) translate(4 215.912)">
<title>map_cc_1</title>
<polygon fill="white" stroke="none" points="-4,4 -4,-215.912 375.938,-215.912 375.938,4 -4,4"/>
<!-- synacor_headquarters_2 -->
<g id="node1" class="node"><title>synacor_headquarters_2</title>
<ellipse fill="none" stroke="black" cx="185.969" cy="-186.456" rx="185.938" ry="25.4118"/>
<text text-anchor="middle" x="185.969" y="-180.456" font-family="Times,serif" font-size="25.00">synacor_headquarters_2</text>
</g>
<!-- synacor_headquarters -->
<g id="node2" class="node"><title>synacor_headquarters</title>
<polygon fill="none" stroke="black" points="307.969,-92 63.9691,-92 63.9691,-0 307.969,-0 307.969,-92"/>
<text text-anchor="middle" x="185.969" y="-68" font-family="Times,serif" font-size="25.00">synacor_headquarters:</text>
<text text-anchor="middle" x="185.969" y="-40" font-family="Times,serif" font-size="25.00">strange book</text>
<text text-anchor="middle" x="185.969" y="-12" font-family="Times,serif" font-size="25.00">business card</text>
</g>
<!-- synacor_headquarters_2&#45;&gt;synacor_headquarters -->
<g id="edge1" class="edge"><title>synacor_headquarters_2&#45;&gt;synacor_headquarters</title>
<path fill="none" stroke="black" d="M151.599,-160.971C146.467,-155.667 141.916,-149.632 138.969,-143 133.014,-129.597 134.349,-123.92 138.969,-110 139.948,-107.052 141.124,-104.129 142.455,-101.252"/>
<polygon fill="black" stroke="black" points="145.637,-102.72 147.18,-92.2378 139.437,-99.4699 145.637,-102.72"/>
<text text-anchor="middle" x="175.469" y="-119" font-family="Times,serif" font-size="30.00">inside</text>
</g>
<!-- synacor_headquarters&#45;&gt;synacor_headquarters_2 -->
<g id="edge2" class="edge"><title>synacor_headquarters&#45;&gt;synacor_headquarters_2</title>
<path fill="none" stroke="black" d="M208.544,-92.4684C213.769,-108.462 216.607,-126.547 211.969,-143 211.129,-145.982 210.014,-148.961 208.718,-151.88"/>
<polygon fill="black" stroke="black" points="205.527,-150.431 204.076,-160.926 211.756,-153.626 205.527,-150.431"/>
<text text-anchor="middle" x="257.969" y="-119" font-family="Times,serif" font-size="30.00">outside</text>
</g>
</g>
</svg>
